# xmcd
#
# Track frame offsets:
#	150
#	12131
#	22531
#	37438
#	55803
#	69149
#	78244
#	88565
#	100078
#	111514
#	127063
#	136934
#	147572
#	159546
#	171862
#	185633
#	195813
#	209288
#	222016
#	234897
#	246530
#	258953
#	268494
#	280557
#
# Disc length: 3863 seconds
#
# Revision: 1
# Processed by: cddbd v1.5.2PL0 Copyright (c) Steve Scherf et al.
# Submitted via: audiograbber 1.83.01
#
DISCID=520f1518
DTITLE=johnnie ray - a sinner am i (1959) the singles (1951-1952)
DYEAR=2014
DGENRE=vocal
TTITLE0=a sinner am i
TTITLE1=a hundred years from today
TTITLE2=it's all in the game
TTITLE3=september song
TTITLE4=don't worry 'bout me
TTITLE5=day by day
TTITLE6=if i had you
TTITLE7=tell the lady i said goodbye
TTITLE8=give me time
TTITLE9=don't leave me now
TTITLE10=all the way
TTITLE11=love
TTITLE12=tell the lady i said goodbye (1951)
TTITLE13=whiskey and gin (1951)
TTITLE14=cry (1951)
TTITLE15=the little white cloud that cried (1951)
TTITLE16=please mr. sun (1951)
TTITLE17=here i am, broken hearted (1951)
TTITLE18=what's the use (1952)
TTITLE19=mountains in the moonlight (1952)
TTITLE20=gee but i'm lonesome (1952)
TTITLE21=don't say love has ended (1952)
TTITLE22=faith can move mountains (1952)
TTITLE23=love me (baby, can't you love me) (1952)
EXTD=
EXTT0=
EXTT1=
EXTT2=
EXTT3=
EXTT4=
EXTT5=
EXTT6=
EXTT7=
EXTT8=
EXTT9=
EXTT10=
EXTT11=
EXTT12=
EXTT13=
EXTT14=
EXTT15=
EXTT16=
EXTT17=
EXTT18=
EXTT19=
EXTT20=
EXTT21=
EXTT22=
EXTT23=
PLAYORDER=
